# xmcd
#
# Track frame offsets:
# 183
# 15498
# 32133
# 47563
# 64880
# 82225
# 94285
# 115395
# 135508
# 150140
# 164530
# 177153
# 192318
# 210238
# 227658
# 244930
# 257990
# 274605
# 291020
# 307820
#
# Disc length: 4405 seconds
#
# Revision: 1
# Processed by: cddbd v1.5.2PL0 Copyright (c) Steve Scherf et al.
# Submitted via: Axialis_AX_CDPlayer 2.6
#
DISCID=0f113314
DTITLE=Status Quo - The Very Best
DYEAR=1900
DGENRE=Rock
TTITLE0=I Didn't Mean It
TTITLE1=In The Army Now
TTITLE2=Rockin' All Over The World
TTITLE3=Whatever You Want
TTITLE4=What You're Proposin'
TTITLE5=Something 'Bout You Baby I Like
TTITLE6=Roll Over Lay Down
TTITLE7=Rain
TTITLE8=Wild Side Of Life
TTITLE9=Dear John
TTITLE10=Ol' Rag Blues
TTITLE11=The Wanderer
TTITLE12=Rollin' Home
TTITLE13=Burning Bridges
TTITLE14=Rock 'N Roll
TTITLE15=Paper Plane
TTITLE16=Caroline
TTITLE17=Break The Rules
TTITLE18=Down Down
TTITLE19=Anniversary
EXTD=
EXTT0=
EXTT1=
EXTT2=
EXTT3=
EXTT4=
EXTT5=
EXTT6=
EXTT7=
EXTT8=
EXTT9=
EXTT10=
EXTT11=
EXTT12=
EXTT13=
EXTT14=
EXTT15=
EXTT16=
EXTT17=
EXTT18=
EXTT19=
PLAYORDER=
